# xmcd CD database file
#
# Track frame offsets:
#	150
#	53433
#	75169
#	99853
#	140612
#	164385
#	186258
#	216271
#
# Disc length: 3697 seconds
#
# Revision: 1
# Processed by: cddbd v1.5.2PL0 Copyright (c) Steve Scherf et al.
# Submitted via: CDex 1.70beta3
#
DISCID=5e0e6f08
DTITLE=Dojo - 道場 壱ノ巻
DYEAR=2014
DGENRE=Jazz
TTITLE0=Monsoon ～ For Sonny and Shannon
TTITLE1=Kusurifuru
TTITLE2=Drum'n'Bass
TTITLE3=Roll Playing
TTITLE4=Hyperborean
TTITLE5=Whither
TTITLE6=THe Temple of Secrets
TTITLE7=Ectoplasm
EXTD=YEAR: 2014
EXTT0=
EXTT1=
EXTT2=
EXTT3=
EXTT4=
EXTT5=
EXTT6=
EXTT7=
PLAYORDER=
